# File created by Blade
# Date/Time:  Tue Jan 27 17:01:45 2015
#---------------------------------------------------------
:version 1.10
:name HOM
:units
  mass 1.0
  length 1.000000
  angle deg
:documentation
     Acclaim Skeleton File
:root
   axis xyz
   order TX TY TZ RX RY RZ
   position 0.000000 0.000000 0.000000
   orientation 0 0 0
:bonedata
   begin
      id 1
      name Spine_dum
      direction 0.000000 1.000000 0.000000
      length 7.539951
      axis 0.0 0.0 0.0 xyz
   end
   begin
      id 2
      name LeftUpLeg_dum
      direction 1.000000 0.000000 0.000000
      length 3.345476
      axis 0.0 0.0 0.0 xyz
   end
   begin
      id 3
      name RightUpLeg_dum
      direction -1.000000 0.000000 0.000000
      length 3.345476
      axis 0.0 0.0 0.0 xyz
   end
   begin
      id 4
      name Spine
      direction 0.000000 1.000000 0.000000
      length 0.000000
      axis 0.0 0.0 0.0 xyz
      dof rx ry rz
   end
   begin
      id 5
      name Spine_dum1
      direction 0.000000 1.000000 0.000000
      length 15.093809
      axis 0.0 0.0 0.0 xyz
   end
   begin
      id 6
      name Spine_dum2
      direction 0.000000 1.000000 0.000000
      length 9.738928
      axis 0.0 0.0 0.0 xyz
   end
   begin
      id 7
      name Spine_dum3
      direction 0.000000 1.000000 0.000000
      length 9.738928
      axis 0.0 0.0 0.0 xyz
   end
   begin
      id 8
      name Head
      direction 0.000000 1.000000 0.000000
      length 4.527550
      axis 0.0 0.0 0.0 xyz
      dof rx ry rz
   end
   begin
      id 9
      name LeftShoulder
      direction 1.000000 0.000000 0.000000
      length 7.084015
      axis 0.0 0.0 -90.0 xyz
      dof rx ry rz
   end
   begin
      id 10
      name LeftArm
      direction 1.000000 0.000000 0.000000
      length 10.259319
      axis 0.0 0.0 -90.0 xyz
      dof rx ry rz
   end
   begin
      id 11
      name LeftForeArm
      direction 1.000000 0.000000 0.000000
      length 9.896984
      axis 0.0 0.0 -90.0 xyz
      dof ry rz rx
   end
   begin
      id 12
      name LeftHand
      direction 0.000000 0.000000 0.000000
      length 0.000000
      axis 0.0 0.0 -90.0 xyz
      dof rx ry rz
   end
   begin
      id 13
      name LeftHand_dum1
      direction 0.000000 0.000000 0.000000
      length 0.000000
      axis 0.0 0.0 -90.0 xyz
   end
   begin
      id 14
      name LeftHand_dum2
      direction 1.000000 0.000000 0.000000
      length 3.937000
      axis 0.0 0.0 -90.0 xyz
   end
   begin
      id 15
      name LeftHandThumb1
      direction 0.000000 0.000000 1.000000
      length 3.937000
      axis 0.0 0.0 -90.0 xyz
      dof rx rz ry
   end
   begin
      id 16
      name RightShoulder
      direction -1.000000 0.000000 0.000000
      length 7.084015
      axis 0.0 0.0 90.0 xyz
      dof rx ry rz
   end
   begin
      id 17
      name RightArm
      direction -1.000000 0.000000 0.000000
      length 10.259319
      axis 0.0 0.0 90.0 xyz
      dof rx ry rz
   end
   begin
      id 18
      name RightForeArm
      direction -1.000000 0.000000 0.000000
      length 9.896984
      axis 0.0 0.0 90.0 xyz
      dof ry rz rx
   end
   begin
      id 19
      name RightHand
      direction 0.000000 0.000000 0.000000
      length 0.000000
      axis 0.0 0.0 90.0 xyz
      dof rx ry rz
   end
   begin
      id 20
      name RightHand_dum1
      direction 0.000000 0.000000 0.000000
      length 0.000000
      axis 0.0 0.0 90.0 xyz
   end
   begin
      id 21
      name RightHand_dum2
      direction -1.000000 0.000000 0.000000
      length 3.937000
      axis 0.0 0.0 90.0 xyz
   end
   begin
      id 22
      name RightHandThumb1
      direction 0.000000 0.000000 1.000000
      length 3.937000
      axis 0.0 0.0 90.0 xyz
      dof rx rz ry
   end
   begin
      id 23
      name LeftUpLeg
      direction 0.000000 -1.000000 0.000000
      length 19.114733
      axis 0.0 0.0 0.0 xyz
      dof rx ry rz
   end
   begin
      id 24
      name LeftLeg
      direction 0.000000 -1.000000 0.000000
      length 16.045604
      axis 0.0 0.0 0.0 xyz
      dof rx ry rz
   end
   begin
      id 25
      name LeftFoot
      direction 0.000000 -0.258819 0.965926
      length 5.543155
      axis 15.0 0.0 0.0 xyz
      dof rx ry rz
   end
   begin
      id 26
      name LeftToeBase
      direction 0.000000 0.000000 1.000000
      length 2.952750
      axis 0.0 0.0 0.0 xyz
      dof rx ry rz
   end
   begin
      id 27
      name RightUpLeg
      direction 0.000000 -1.000000 0.000000
      length 19.114733
      axis 0.0 0.0 0.0 xyz
      dof rx ry rz
   end
   begin
      id 28
      name RightLeg
      direction 0.000000 -1.000000 0.000000
      length 16.045604
      axis 0.0 0.0 0.0 xyz
      dof rx ry rz
   end
   begin
      id 29
      name RightFoot
      direction 0.000000 -0.258819 0.965926
      length 5.543155
      axis 15.0 0.0 0.0 xyz
      dof rx ry rz
   end
   begin
      id 30
      name RightToeBase
      direction 0.000000 0.000000 1.000000
      length 2.952750
      axis 0.0 0.0 0.0 xyz
      dof rx ry rz
   end
:hierarchy
   begin
      root Spine_dum LeftUpLeg_dum RightUpLeg_dum
      Spine_dum Spine
      LeftUpLeg_dum LeftUpLeg
      RightUpLeg_dum RightUpLeg
      Spine Spine_dum1 Spine_dum2 Spine_dum3
      Spine_dum1 Head
      Spine_dum2 LeftShoulder
      Spine_dum3 RightShoulder
      LeftShoulder LeftArm
      LeftArm LeftForeArm
      LeftForeArm LeftHand
      LeftHand LeftHand_dum1 LeftHand_dum2
      LeftHand_dum1 LeftHandThumb1
      RightShoulder RightArm
      RightArm RightForeArm
      RightForeArm RightHand
      RightHand RightHand_dum1 RightHand_dum2
      RightHand_dum1 RightHandThumb1
      LeftUpLeg LeftLeg
      LeftLeg LeftFoot
      LeftFoot LeftToeBase
      RightUpLeg RightLeg
      RightLeg RightFoot
      RightFoot RightToeBase
   end

# File created by Blade
# Date/Time:  Tue Jan 27 17:01:38 2015
# Frame Rate: 120.000 fps
#------------------------------------------------------
:FULLY-SPECIFIED
:DEGREES
1812
root -1.100060 36.878908 5.061143 7.533503 -0.356392 -1.004367
Spine -4.632618 5.900607 -3.817793
Head 1.736793 7.579616 0.310300
LeftShoulder -0.812327 -6.870472 -3.877159
LeftArm -2.568411 -27.543205 -64.788026
LeftForeArm -71.637953 -0.000000 18.156118
LeftHand -0.445483 0.000000 -1.681626
LeftHandThumb1 -26.253704 0.000000 33.147579
RightShoulder -1.192231 -22.000562 -1.303142
RightArm 24.922856 -32.491880 53.567193
RightForeArm -148.319448 0.000000 33.001502
RightHand -1.190906 -0.000000 -2.110143
RightHandThumb1 -24.326973 -0.000000 -32.862282
LeftUpLeg -5.070501 13.909398 4.862462
LeftLeg 7.309859 -0.000000 -0.000000
LeftFoot -16.390447 3.389774 -20.833416
LeftToeBase 14.678993 -0.000000 -0.000000
RightUpLeg -7.511001 -9.481648 -0.302875
RightLeg 10.620304 -0.000000 -0.000000
RightFoot -15.770698 -3.656695 13.877569
RightToeBase 10.854051 -0.000000 -0.000000
1813
root -1.101453 36.879055 5.057356 7.543628 -0.287677 -0.989261
Spine -4.641792 5.892300 -3.870587
Head 1.715668 7.597276 0.402953
LeftShoulder -0.874734 -6.766736 -3.885590
LeftArm -2.815514 -28.170718 -64.647606
LeftForeArm -70.960616 0.000000 20.863679
LeftHand -0.372601 -0.000000 -2.578849
LeftHandThumb1 -26.253704 0.000000 33.147579
RightShoulder -1.210991 -21.977968 -1.281340
RightArm 24.906038 -32.419385 53.634777
RightForeArm -148.312647 -0.000000 32.928994
RightHand -1.250037 -0.000000 -1.936155
RightHandThumb1 -24.326973 -0.000000 -32.862282
LeftUpLeg -5.085770 13.859556 4.857501
LeftLeg 7.275493 -0.000000 -0.000000
LeftFoot -16.418264 3.345120 -21.024517
LeftToeBase 14.927697 -0.000000 -0.000000
RightUpLeg -7.513802 -9.516700 -0.306135
RightLeg 10.609066 -0.000000 -0.000000
RightFoot -15.792354 -3.686705 13.883927
RightToeBase 10.895481 -0.000000 -0.000000
1814
root -1.103048 36.878597 5.056159 7.554984 -0.222585 -0.974137
Spine -4.664350 5.893178 -3.930989
Head 1.706112 7.575275 0.510376
LeftShoulder -0.930681 -6.657658 -3.901317
LeftArm -3.076927 -28.792809 -64.534533
LeftForeArm -70.595325 -0.000000 23.765611
LeftHand -0.306453 -0.000000 -3.254213
LeftHandThumb1 -26.253704 0.000000 33.147579
RightShoulder -1.224232 -21.979100 -1.271923
RightArm 24.906742 -32.360563 53.689628
RightForeArm -148.281784 0.000000 32.864300
RightHand -1.350197 0.000000 -1.821033
RightHandThumb1 -24.326973 -0.000000 -32.862282
LeftUpLeg -5.104093 13.823901 4.849328
LeftLeg 7.256944 -0.000000 -0.000000
LeftFoot -16.395735 3.298534 -21.068450
LeftToeBase 14.968281 -0.000000 -0.000000
RightUpLeg -7.508121 -9.554767 -0.310625
RightLeg 10.585357 -0.000000 -0.000000
RightFoot -15.807100 -3.708343 13.880418
RightToeBase 10.888628 -0.000000 -0.000000
1815
root -1.104332 36.878083 5.052990 7.559166 -0.153344 -0.959272
Spine -4.667575 5.904623 -3.986134
Head 1.681256 7.518793 0.602575
LeftShoulder -0.983048 -6.523972 -3.932753
LeftArm -3.249107 -29.318955 -64.463076
LeftForeArm -70.121238 -0.000000 26.619148
LeftHand -0.088692 -0.000000 -4.040439
LeftHandThumb1 -26.253704 0.000000 33.147579
RightShoulder -1.244404 -21.954393 -1.273362
RightArm 24.898945 -32.297156 53.761566
RightForeArm -148.277810 -0.000000 32.798668
RightHand -1.349310 0.000000 -1.914549
RightHandThumb1 -24.326973 -0.000000 -32.862282
LeftUpLeg -5.125299 13.771566 4.840949
LeftLeg 7.255327 -0.000000 -0.000000
LeftFoot -16.378566 3.287741 -21.061253
LeftToeBase 14.947012 -0.000000 -0.000000
RightUpLeg -7.495919 -9.578740 -0.314877
RightLeg 10.557433 -0.000000 -0.000000
RightFoot -15.831248 -3.751485 13.894350
RightToeBase 10.929683 -0.000000 -0.000000
